<svg id="Layer_1" data-name="Layer 1" xmlns="http://www.w3.org/2000/svg" width="512" height="113.8471" viewBox="0 0 512 113.8471"><title>fill</title><path d="M12.9566,239.3569H28.3988v9.9019a20.4117,20.4117,0,0,1,7.7506-8.4873,21.3,21.3,0,0,1,11.228-3.0059q7.3671,0,11.3459,4.1257t3.9784,11.67a49.0033,49.0033,0,0,1-1.0609,8.9l-8.31,42.9081H36.061L43.9,265.1725a31.2489,31.2489,0,0,0,.5894-5.5992q0-7.6617-6.3654-7.6622a10.7451,10.7451,0,0,0-8.4874,4.3321q-3.5955,4.332-5.0688,12.0531L17.436,305.3694H.1667Z" transform="translate(-0.1667 -199.3542)" fill="#2d3748"/><path d="M81.2182,307.0787q-7.2495,0-11.2575-4.1847t-4.0079-11.9059a46.4381,46.4381,0,0,1,1.002-8.6641l8.4284-42.9671H92.5347l-7.7212,40.3148a29.8455,29.8455,0,0,0-.5893,5.5993q0,7.6624,6.4833,7.6622a10.3652,10.3652,0,0,0,8.34-4.3026q3.4479-4.3022,4.98-12.0827l7.1906-37.191H128.37l-12.79,66.0125H100.1379v-9.784a18.7752,18.7752,0,0,1-7.4854,8.399A21.5068,21.5068,0,0,1,81.2182,307.0787Z" transform="translate(-0.1667 -199.3542)" fill="#2d3748"/><path d="M150.1117,313.2013q-11.4933,0-16.7978-3.36t-5.3046-10.6092a43.0845,43.0845,0,0,1,1.12-8.3694l11.9647-56.7H123.0584l2.5344-13.2615h35.2459l-14.7349,70.9635q-.1769.8258-.3242,1.7387a10.5965,10.5965,0,0,0-.1473,1.68q0,4.6564,8.2515,4.6562h16.3853l-2.6523,13.2614Z" transform="translate(-0.1667 -199.3542)" fill="#d22365"/><path d="M181.7435,291.6538q-11.4933,0-16.7979-3.3595t-5.3045-10.6092a43.0907,43.0907,0,0,1,1.12-8.3694l11.9648-56.7H154.69l2.5344-13.2614h35.246l-14.7349,70.9634q-.1768.8258-.3242,1.7388a10.5963,10.5963,0,0,0-.1473,1.68q0,4.6566,8.2515,4.6563h16.3853l-2.6523,13.2614Z" transform="translate(-0.1667 -199.3542)" fill="#d22365"/><path d="M228.2021,307.0787a72.543,72.543,0,0,1-23.6348-4.1258l3.0059-15.0886q10.6092,6.7783,21.69,6.7781,6.4239,0,10.1082-2.2986a7.1459,7.1459,0,0,0,3.6837-6.3655,4.4918,4.4918,0,0,0-1.8271-3.8311q-2.3578-1.8858-9.6072-3.949l-5.1867-1.4145q-13.91-3.8308-13.91-16.9747a19,19,0,0,1,8.0452-16.0611q8.0452-5.9817,22.4855-5.9823a60.7356,60.7356,0,0,1,10.1671.8546,63.1152,63.1152,0,0,1,10.5208,2.8l-2.947,14.9707a33.7326,33.7326,0,0,0-19.3912-6.3065q-5.9535,0-9.3714,2.0923a6.2718,6.2718,0,0,0-3.4185,5.5109,5.1069,5.1069,0,0,0,2.24,4.3026q2.4755,1.71,9.6661,3.7721L244.8821,267q7.4847,2.1217,10.9922,6.2771t3.5069,10.8154q0,10.7276-8.2515,16.8568T228.2021,307.0787Z" transform="translate(-0.1667 -199.3542)" fill="#2d3748"/><path d="M297.9137,305.6641q-11.3165,0-16.7094-3.389t-5.393-10.58a47.8281,47.8281,0,0,1,1.0609-8.3694l5.9529-30.7076H265.9094l2.5344-13.2615H285.36l3.5953-18.7428h17.2694L302.57,239.3569h22.5739l-2.5344,13.2615H300.0355l-6.1887,31.71a20.3147,20.3147,0,0,0-.4125,3.2416,3.9572,3.9572,0,0,0,1.945,3.6838q1.9449,1.1493,6.2476,1.1493h13.2614l-2.5344,13.2614Z" transform="translate(-0.1667 -199.3542)" fill="#2d3748"/><path d="M338.2119,307.0787q-9.4314,0-14.617-5.1278-5.1879-5.1277-5.1867-14.2634,0-12.2589,9.3125-19.008t26.2871-6.7486h11.3754l.4715-2.8881a3.64,3.64,0,0,1,.1179-.7073v-1.0019a5.6328,5.6328,0,0,0-2.9765-5.1278q-2.9776-1.7682-8.5168-1.7682a41.5681,41.5681,0,0,0-10.9038,1.5914,86.003,86.003,0,0,0-13.32,5.0688l2.77-14.7349a74.4651,74.4651,0,0,1,24.6368-4.5973q12.082,0,18.6544,4.6562,6.5706,4.6566,6.5718,13.733a36.3569,36.3569,0,0,1-.4716,5.5992q-.4721,3.006-1.12,5.9529l-7.25,37.6625h-15.56V298.002A26.3366,26.3366,0,0,1,338.2119,307.0787Zm7.1907-11.8469q6.4823,0,11.2575-5.6877t6.3065-15.4127h-6.66q-19.9221,0-19.9216,12.1416a8.3432,8.3432,0,0,0,9.0178,8.9588Z" transform="translate(-0.1667 -199.3542)" fill="#2d3748"/><path d="M415.2556,307.0787q-13.7336,0-21.1888-7.4264t-7.4559-21.4541a42.6717,42.6717,0,0,1,5.01-20.8646A36.8017,36.8017,0,0,1,405.56,242.9817a40.4365,40.4365,0,0,1,20.7763-5.2161,39.06,39.06,0,0,1,19.6269,4.9509l-3.1238,15.7958a22.7334,22.7334,0,0,0-16.0905-6.7191,21.26,21.26,0,0,0-11.8175,3.3006,22.5438,22.5438,0,0,0-7.9863,9.1062,29.4458,29.4458,0,0,0-2.888,13.2909q0,8.0161,3.4774,11.788t10.4913,3.7721q8.8408,0,19.3911-6.13l-3.3006,16.2674A46.0445,46.0445,0,0,1,415.2556,307.0787Z" transform="translate(-0.1667 -199.3542)" fill="#2d3748"/><path d="M458.2368,213.6592h17.2694L466.5473,259.75l23.8117-20.3932h21.8077l-29.7646,24.6368L500.85,305.3694H482.52L469.4354,274.485l-6.837,5.6582-4.8331,25.2262H440.496Z" transform="translate(-0.1667 -199.3542)" fill="#2d3748"/></svg>